# xmcd CD database file generated by Grip 2.96
# 
# Track frame offsets:
#       150
#       23556
#       34968
#       51850
#       69733
#       86690
#       108240
#       128916
#       143547
#       156774
#       171988
#       188881
# 
# Disc length: 2919 seconds
# 
# Revision: 0
# Processed by: cddbd v1.4PL0 Copyright (c) Steve Scherf et al.
# Submitted via: Grip 2.96
# 
DISCID=a00b650c
DTITLE=Righteous Ike and The Spellcasters - Righteous Ike and The Spellcasters
DYEAR=1900
DGENRE=
TTITLE0=Black cat bone
TTITLE1=You got me nervous
TTITLE2=Behind the barn
TTITLE3=I'm still bleeding
TTITLE4=Trouble is knocking
TTITLE5=My heart is open
TTITLE6=Cigarette Song
TTITLE7=Folson Prison Blues
TTITLE8=Kitten song
TTITLE9=Lost Highway
TTITLE10=Jambalaya
TTITLE11=My little Missy
EXTD=
EXTT0=
EXTT1=
EXTT2=
EXTT3=
EXTT4=
EXTT5=
EXTT6=
EXTT7=
EXTT8=
EXTT9=
EXTT10=
EXTT11=
PLAYORDER=
